<?xml version="1.0" encoding="UTF-8" standalone="no"?>
<!DOCTYPE svg PUBLIC "-//W3C//DTD SVG 1.1//EN" "http://www.w3.org/Graphics/SVG/1.1/DTD/svg11.dtd">
<svg width="100%" height="100%" viewBox="0 0 237 237" version="1.1" xmlns="http://www.w3.org/2000/svg" xmlns:xlink="http://www.w3.org/1999/xlink" xml:space="preserve" xmlns:serif="http://www.serif.com/" style="fill-rule:evenodd;clip-rule:evenodd;stroke-linejoin:round;stroke-miterlimit:2;">
    <g transform="matrix(1,0,0,1,-385,-795)">
        <g transform="matrix(0.233419,0,0,0.233419,295.133516,609.431546)">
            <path d="M385,795L385,1078.36L668.36,1078.36L668.36,795L385,795ZM708.84,795L708.84,835.48L749.32,835.48L749.32,875.96L789.8,875.96L789.8,916.44L870.76,916.44L870.76,875.96L830.28,875.96L830.28,835.48L870.76,835.48L870.76,875.96L911.24,875.96L911.24,997.4L789.8,997.4L789.8,956.92L749.32,956.92L749.32,997.4L789.8,997.4L789.8,1118.84L749.32,1118.84L749.32,1037.88L708.84,1037.88L708.84,1118.84L749.32,1118.84L749.32,1159.32L708.84,1159.32L708.84,1199.8L789.8,1199.8L789.8,1240.28L749.32,1240.28L749.32,1321.24L789.8,1321.24L789.8,1280.76L830.28,1280.76L830.28,1361.72L870.76,1361.72L870.76,1321.24L911.24,1321.24L911.24,1402.2L992.2,1402.2L992.2,1523.64L1032.68,1523.64L1032.68,1564.12L992.2,1564.12L992.2,1523.64L951.72,1523.64L951.72,1564.12L992.2,1564.12L992.2,1604.6L951.72,1604.6L951.72,1564.12L870.76,1564.12L870.76,1523.64L789.8,1523.64L789.8,1483.16L708.84,1483.16L708.84,1442.68L627.88,1442.68L627.88,1483.16L708.84,1483.16L708.84,1523.64L789.8,1523.64L789.8,1564.12L749.32,1564.12L749.32,1604.6L830.28,1604.6L830.28,1645.08L870.76,1645.08L870.76,1604.6L830.28,1604.6L830.28,1564.12L870.76,1564.12L870.76,1604.6L911.24,1604.6L911.24,1645.08L992.2,1645.08L992.2,1685.56L1032.68,1685.56L1032.68,1726.04L1073.16,1726.04L1073.16,1766.52L1235.08,1766.52L1235.08,1807L1275.56,1807L1275.56,1766.52L1235.08,1766.52L1235.08,1726.04L1275.56,1726.04L1275.56,1766.52L1356.52,1766.52L1356.52,1807L1397,1807L1397,1645.08L1356.52,1645.08L1356.52,1604.6L1397,1604.6L1397,1523.64L1356.52,1523.64L1356.52,1442.68L1316.04,1442.68L1316.04,1402.2L1356.52,1402.2L1356.52,1442.68L1397,1442.68L1397,1361.72L1356.52,1361.72L1356.52,1321.24L1316.04,1321.24L1316.04,1361.72L1235.08,1361.72L1235.08,1321.24L1194.6,1321.24L1194.6,1240.28L1113.64,1240.28L1113.64,1199.8L1073.16,1199.8L1073.16,916.44L1032.68,916.44L1032.68,1078.36L992.2,1078.36L992.2,875.96L911.24,875.96L911.24,835.48L992.2,835.48L992.2,795L789.8,795L789.8,835.48L749.32,835.48L749.32,795L708.84,795ZM1113.64,795L1113.64,1078.36L1397,1078.36L1397,795L1113.64,795ZM627.88,835.48L627.88,1037.88L425.48,1037.88L425.48,835.48L627.88,835.48ZM1032.68,835.48L1032.68,875.96L1073.16,875.96L1073.16,835.48L1032.68,835.48ZM1356.52,835.48L1356.52,1037.88L1154.12,1037.88L1154.12,835.48L1356.52,835.48ZM465.96,875.96L465.96,997.4L587.4,997.4L587.4,875.96L465.96,875.96ZM1194.6,875.96L1194.6,997.4L1316.04,997.4L1316.04,875.96L1194.6,875.96ZM870.76,1037.88L870.76,1078.36L830.28,1078.36L830.28,1037.88L870.76,1037.88ZM951.72,1037.88L951.72,1078.36L992.2,1078.36L992.2,1118.84L1032.68,1118.84L1032.68,1159.32L992.2,1159.32L992.2,1118.84L951.72,1118.84L951.72,1078.36L911.24,1078.36L911.24,1037.88L951.72,1037.88ZM385,1118.84L385,1240.28L425.48,1240.28L425.48,1280.76L465.96,1280.76L465.96,1240.28L425.48,1240.28L425.48,1199.8L465.96,1199.8L465.96,1240.28L506.44,1240.28L506.44,1280.76L546.92,1280.76L546.92,1321.24L506.44,1321.24L506.44,1361.72L465.96,1361.72L465.96,1321.24L385,1321.24L385,1483.16L425.48,1483.16L425.48,1402.2L465.96,1402.2L465.96,1483.16L587.4,1483.16L587.4,1402.2L546.92,1402.2L546.92,1361.72L587.4,1361.72L587.4,1402.2L668.36,1402.2L668.36,1361.72L627.88,1361.72L627.88,1321.24L708.84,1321.24L708.84,1361.72L749.32,1361.72L749.32,1402.2L708.84,1402.2L708.84,1442.68L830.28,1442.68L830.28,1483.16L870.76,1483.16L870.76,1523.64L911.24,1523.64L911.24,1483.16L870.76,1483.16L870.76,1442.68L830.28,1442.68L830.28,1361.72L749.32,1361.72L749.32,1321.24L708.84,1321.24L708.84,1240.28L668.36,1240.28L668.36,1199.8L627.88,1199.8L627.88,1240.28L668.36,1240.28L668.36,1280.76L627.88,1280.76L627.88,1240.28L587.4,1240.28L587.4,1280.76L546.92,1280.76L546.92,1159.32L587.4,1159.32L587.4,1118.84L506.44,1118.84L506.44,1159.32L465.96,1159.32L465.96,1118.84L385,1118.84ZM627.88,1118.84L627.88,1159.32L668.36,1159.32L668.36,1118.84L627.88,1118.84ZM911.24,1118.84L911.24,1159.32L992.2,1159.32L992.2,1199.8L951.72,1199.8L951.72,1280.76L992.2,1280.76L992.2,1361.72L951.72,1361.72L951.72,1280.76L830.28,1280.76L830.28,1240.28L870.76,1240.28L870.76,1199.8L789.8,1199.8L789.8,1159.32L870.76,1159.32L870.76,1118.84L911.24,1118.84ZM1113.64,1118.84L1113.64,1159.32L1154.12,1159.32L1154.12,1199.8L1194.6,1199.8L1194.6,1240.28L1235.08,1240.28L1235.08,1280.76L1356.52,1280.76L1356.52,1321.24L1397,1321.24L1397,1199.8L1356.52,1199.8L1356.52,1159.32L1154.12,1159.32L1154.12,1118.84L1113.64,1118.84ZM1356.52,1118.84L1356.52,1159.32L1397,1159.32L1397,1118.84L1356.52,1118.84ZM1275.56,1240.28L1275.56,1199.8L1356.52,1199.8L1356.52,1240.28L1275.56,1240.28ZM992.2,1280.76L992.2,1240.28L1032.68,1240.28L1032.68,1199.8L1073.16,1199.8L1073.16,1240.28L1113.64,1240.28L1113.64,1321.24L1194.6,1321.24L1194.6,1402.2L1235.08,1402.2L1235.08,1442.68L1275.56,1442.68L1275.56,1523.64L1356.52,1523.64L1356.52,1564.12L1316.04,1564.12L1316.04,1685.56L1194.6,1685.56L1194.6,1726.04L1113.64,1726.04L1113.64,1685.56L1154.12,1685.56L1154.12,1645.08L1235.08,1645.08L1235.08,1442.68L1194.6,1442.68L1194.6,1402.2L1154.12,1402.2L1154.12,1361.72L1113.64,1361.72L1113.64,1321.24L1073.16,1321.24L1073.16,1280.76L992.2,1280.76ZM1073.16,1402.2L1073.16,1361.72L1113.64,1361.72L1113.64,1402.2L1154.12,1402.2L1154.12,1442.68L1113.64,1442.68L1113.64,1402.2L1073.16,1402.2ZM1194.6,1483.16L1194.6,1604.6L1073.16,1604.6L1073.16,1483.16L1194.6,1483.16ZM385,1523.64L385,1807L668.36,1807L668.36,1523.64L385,1523.64ZM1113.64,1523.64L1113.64,1564.12L1154.12,1564.12L1154.12,1523.64L1113.64,1523.64ZM627.88,1564.12L627.88,1766.52L425.48,1766.52L425.48,1564.12L627.88,1564.12ZM465.96,1604.6L465.96,1726.04L587.4,1726.04L587.4,1604.6L465.96,1604.6ZM708.84,1604.6L708.84,1685.56L749.32,1685.56L749.32,1604.6L708.84,1604.6ZM789.8,1645.08L789.8,1807L911.24,1807L911.24,1766.52L870.76,1766.52L870.76,1685.56L830.28,1685.56L830.28,1645.08L789.8,1645.08ZM1073.16,1645.08L1073.16,1685.56L1032.68,1685.56L1032.68,1645.08L1073.16,1645.08ZM708.84,1726.04L708.84,1807L749.32,1807L749.32,1726.04L708.84,1726.04ZM1032.68,1766.52L1032.68,1807L1073.16,1807L1073.16,1766.52L1032.68,1766.52Z"/>
        </g>
    </g>
</svg>
