<?xml version="1.0" encoding="UTF-8" standalone="no"?>
<!DOCTYPE svg PUBLIC "-//W3C//DTD SVG 1.1//EN" "http://www.w3.org/Graphics/SVG/1.1/DTD/svg11.dtd">
<svg width="100%" height="100%" viewBox="0 0 237 237" version="1.1" xmlns="http://www.w3.org/2000/svg" xmlns:xlink="http://www.w3.org/1999/xlink" xml:space="preserve" xmlns:serif="http://www.serif.com/" style="fill-rule:evenodd;clip-rule:evenodd;stroke-linejoin:round;stroke-miterlimit:2;">
    <g transform="matrix(1,0,0,1,-1359,-795)">
        <g transform="matrix(0.233419,0,0,0.233419,1269.133516,609.431546)">
            <path d="M385,795L385,1039.276L629.276,1039.276L629.276,795L385,795ZM768.862,795L768.862,864.793L803.759,864.793L803.759,899.69L768.862,899.69L768.862,864.793L733.966,864.793L733.966,899.69L768.862,899.69L768.862,934.586L803.759,934.586L803.759,969.483L768.862,969.483L768.862,934.586L733.966,934.586L733.966,899.69L699.069,899.69L699.069,934.586L664.172,934.586L664.172,969.483L733.966,969.483L733.966,1039.276L768.862,1039.276L768.862,1004.379L803.759,1004.379L803.759,1039.276L838.655,1039.276L838.655,1074.172L873.552,1074.172L873.552,1143.966L943.345,1143.966L943.345,1178.862L908.448,1178.862L908.448,1283.552L943.345,1283.552L943.345,1318.448L908.448,1318.448L908.448,1283.552L873.552,1283.552L873.552,1248.655L803.759,1248.655L803.759,1143.966L768.862,1143.966L768.862,1109.069L803.759,1109.069L803.759,1074.172L733.966,1074.172L733.966,1039.276L699.069,1039.276L699.069,1004.379L664.172,1004.379L664.172,1039.276L699.069,1039.276L699.069,1109.069L733.966,1109.069L733.966,1143.966L768.862,1143.966L768.862,1178.862L733.966,1178.862L733.966,1143.966L699.069,1143.966L699.069,1109.069L664.172,1109.069L664.172,1143.966L699.069,1143.966L699.069,1178.862L629.276,1178.862L629.276,1143.966L594.379,1143.966L594.379,1178.862L629.276,1178.862L629.276,1213.759L664.172,1213.759L664.172,1248.655L733.966,1248.655L733.966,1213.759L768.862,1213.759L768.862,1248.655L803.759,1248.655L803.759,1353.345L873.552,1353.345L873.552,1423.138L908.448,1423.138L908.448,1353.345L1013.138,1353.345L1013.138,1318.448L1048.034,1318.448L1048.034,1353.345L1082.931,1353.345L1082.931,1423.138L1117.828,1423.138L1117.828,1458.034L1152.724,1458.034L1152.724,1423.138L1187.621,1423.138L1187.621,1492.931L1082.931,1492.931L1082.931,1562.724L1048.034,1562.724L1048.034,1527.828L978.241,1527.828L978.241,1562.724L1048.034,1562.724L1048.034,1597.621L1082.931,1597.621L1082.931,1772.103L1048.034,1772.103L1048.034,1597.621L978.241,1597.621L978.241,1667.414L943.345,1667.414L943.345,1597.621L908.448,1597.621L908.448,1562.724L873.552,1562.724L873.552,1527.828L803.759,1527.828L803.759,1492.931L838.655,1492.931L838.655,1458.034L873.552,1458.034L873.552,1423.138L803.759,1423.138L803.759,1458.034L733.966,1458.034L733.966,1388.241L699.069,1388.241L699.069,1283.552L664.172,1283.552L664.172,1248.655L629.276,1248.655L629.276,1213.759L594.379,1213.759L594.379,1248.655L629.276,1248.655L629.276,1283.552L594.379,1283.552L594.379,1248.655L559.483,1248.655L559.483,1074.172L524.586,1074.172L524.586,1109.069L489.69,1109.069L489.69,1074.172L454.793,1074.172L454.793,1109.069L489.69,1109.069L489.69,1143.966L524.586,1143.966L524.586,1178.862L489.69,1178.862L489.69,1143.966L454.793,1143.966L454.793,1109.069L419.897,1109.069L419.897,1074.172L385,1074.172L385,1109.069L419.897,1109.069L419.897,1143.966L454.793,1143.966L454.793,1178.862L419.897,1178.862L419.897,1213.759L524.586,1213.759L524.586,1283.552L594.379,1283.552L594.379,1318.448L664.172,1318.448L664.172,1423.138L594.379,1423.138L594.379,1388.241L629.276,1388.241L629.276,1353.345L524.586,1353.345L524.586,1388.241L559.483,1388.241L559.483,1423.138L524.586,1423.138L524.586,1458.034L629.276,1458.034L629.276,1492.931L699.069,1492.931L699.069,1458.034L733.966,1458.034L733.966,1492.931L768.862,1492.931L768.862,1562.724L873.552,1562.724L873.552,1597.621L838.655,1597.621L838.655,1632.517L873.552,1632.517L873.552,1702.31L943.345,1702.31L943.345,1737.207L978.241,1737.207L978.241,1772.103L1048.034,1772.103L1048.034,1807L1292.31,1807L1292.31,1772.103L1257.414,1772.103L1257.414,1737.207L1292.31,1737.207L1292.31,1702.31L1257.414,1702.31L1257.414,1632.517L1292.31,1632.517L1292.31,1562.724L1257.414,1562.724L1257.414,1492.931L1222.517,1492.931L1222.517,1458.034L1257.414,1458.034L1257.414,1492.931L1292.31,1492.931L1292.31,1458.034L1257.414,1458.034L1257.414,1423.138L1222.517,1423.138L1222.517,1388.241L1187.621,1388.241L1187.621,1318.448L1152.724,1318.448L1152.724,1283.552L1187.621,1283.552L1187.621,1213.759L1152.724,1213.759L1152.724,1248.655L1117.828,1248.655L1117.828,1178.862L1082.931,1178.862L1082.931,1283.552L1117.828,1283.552L1117.828,1318.448L1152.724,1318.448L1152.724,1353.345L1082.931,1353.345L1082.931,1318.448L1048.034,1318.448L1048.034,1248.655L1013.138,1248.655L1013.138,1283.552L978.241,1283.552L978.241,1213.759L1013.138,1213.759L1013.138,1109.069L978.241,1109.069L978.241,1074.172L1013.138,1074.172L1013.138,1039.276L978.241,1039.276L978.241,1004.379L943.345,1004.379L943.345,969.483L1013.138,969.483L1013.138,1039.276L1048.034,1039.276L1048.034,1074.172L1082.931,1074.172L1082.931,1143.966L1117.828,1143.966L1117.828,1178.862L1222.517,1178.862L1222.517,1213.759L1257.414,1213.759L1257.414,1318.448L1222.517,1318.448L1222.517,1353.345L1257.414,1353.345L1257.414,1423.138L1327.207,1423.138L1327.207,1492.931L1362.103,1492.931L1362.103,1458.034L1397,1458.034L1397,1353.345L1362.103,1353.345L1362.103,1318.448L1397,1318.448L1397,1213.759L1362.103,1213.759L1362.103,1178.862L1397,1178.862L1397,1109.069L1362.103,1109.069L1362.103,1074.172L1327.207,1074.172L1327.207,1109.069L1362.103,1109.069L1362.103,1143.966L1292.31,1143.966L1292.31,1109.069L1257.414,1109.069L1257.414,1074.172L1222.517,1074.172L1222.517,1109.069L1257.414,1109.069L1257.414,1143.966L1292.31,1143.966L1292.31,1178.862L1327.207,1178.862L1327.207,1248.655L1362.103,1248.655L1362.103,1283.552L1327.207,1283.552L1327.207,1388.241L1362.103,1388.241L1362.103,1423.138L1327.207,1423.138L1327.207,1388.241L1292.31,1388.241L1292.31,1213.759L1257.414,1213.759L1257.414,1143.966L1187.621,1143.966L1187.621,1109.069L1117.828,1109.069L1117.828,934.586L1048.034,934.586L1048.034,899.69L1082.931,899.69L1082.931,864.793L1117.828,864.793L1117.828,795L1048.034,795L1048.034,829.897L978.241,829.897L978.241,795L943.345,795L943.345,829.897L908.448,829.897L908.448,795L838.655,795L838.655,829.897L873.552,829.897L873.552,864.793L838.655,864.793L838.655,829.897L803.759,829.897L803.759,795L768.862,795ZM1152.724,795L1152.724,1039.276L1397,1039.276L1397,795L1152.724,795ZM594.379,829.897L594.379,1004.379L419.897,1004.379L419.897,829.897L594.379,829.897ZM664.172,829.897L664.172,864.793L699.069,864.793L699.069,829.897L664.172,829.897ZM1362.103,829.897L1362.103,1004.379L1187.621,1004.379L1187.621,829.897L1362.103,829.897ZM454.793,864.793L454.793,969.483L559.483,969.483L559.483,864.793L454.793,864.793ZM943.345,864.793L943.345,899.69L908.448,899.69L908.448,864.793L943.345,864.793ZM1013.138,864.793L1013.138,899.69L978.241,899.69L978.241,864.793L1013.138,864.793ZM1222.517,864.793L1222.517,969.483L1327.207,969.483L1327.207,864.793L1222.517,864.793ZM873.552,934.586L873.552,969.483L908.448,969.483L908.448,1004.379L943.345,1004.379L943.345,1039.276L908.448,1039.276L908.448,1004.379L873.552,1004.379L873.552,969.483L838.655,969.483L838.655,934.586L873.552,934.586ZM1082.931,1004.379L1082.931,1039.276L1048.034,1039.276L1048.034,1004.379L1082.931,1004.379ZM873.552,1039.276L838.655,1039.276L838.655,1004.379L873.552,1004.379L873.552,1039.276ZM594.379,1074.172L594.379,1109.069L629.276,1109.069L629.276,1074.172L594.379,1074.172ZM838.655,1143.966L838.655,1178.862L873.552,1178.862L873.552,1143.966L838.655,1143.966ZM385,1213.759L385,1248.655L419.897,1248.655L419.897,1213.759L385,1213.759ZM454.793,1283.552L454.793,1318.448L524.586,1318.448L524.586,1283.552L454.793,1283.552ZM385,1318.448L385,1353.345L419.897,1353.345L419.897,1423.138L454.793,1423.138L454.793,1318.448L385,1318.448ZM838.655,1318.448L838.655,1283.552L873.552,1283.552L873.552,1318.448L838.655,1318.448ZM768.862,1353.345L768.862,1388.241L803.759,1388.241L803.759,1353.345L768.862,1353.345ZM978.241,1388.241L978.241,1423.138L1048.034,1423.138L1048.034,1388.241L978.241,1388.241ZM385,1423.138L385,1458.034L419.897,1458.034L419.897,1492.931L524.586,1492.931L524.586,1458.034L419.897,1458.034L419.897,1423.138L385,1423.138ZM943.345,1423.138L943.345,1458.034L978.241,1458.034L978.241,1492.931L1048.034,1492.931L1048.034,1458.034L978.241,1458.034L978.241,1423.138L943.345,1423.138ZM385,1492.931L385,1527.828L419.897,1527.828L419.897,1492.931L385,1492.931ZM559.483,1492.931L559.483,1527.828L629.276,1527.828L629.276,1492.931L559.483,1492.931ZM664.172,1527.828L664.172,1562.724L699.069,1562.724L699.069,1527.828L664.172,1527.828ZM1222.517,1527.828L1222.517,1632.517L1117.828,1632.517L1117.828,1527.828L1222.517,1527.828ZM1292.31,1527.828L1292.31,1562.724L1327.207,1562.724L1327.207,1667.414L1292.31,1667.414L1292.31,1702.31L1362.103,1702.31L1362.103,1737.207L1397,1737.207L1397,1632.517L1362.103,1632.517L1362.103,1597.621L1397,1597.621L1397,1527.828L1292.31,1527.828ZM385,1562.724L385,1807L629.276,1807L629.276,1562.724L385,1562.724ZM733.966,1562.724L733.966,1597.621L699.069,1597.621L699.069,1632.517L733.966,1632.517L733.966,1702.31L803.759,1702.31L803.759,1737.207L838.655,1737.207L838.655,1667.414L803.759,1667.414L803.759,1597.621L768.862,1597.621L768.862,1562.724L733.966,1562.724ZM1152.724,1562.724L1152.724,1597.621L1187.621,1597.621L1187.621,1562.724L1152.724,1562.724ZM594.379,1597.621L594.379,1772.103L419.897,1772.103L419.897,1597.621L594.379,1597.621ZM454.793,1632.517L454.793,1737.207L559.483,1737.207L559.483,1632.517L454.793,1632.517ZM664.172,1632.517L664.172,1667.414L699.069,1667.414L699.069,1632.517L664.172,1632.517ZM1187.621,1667.414L1187.621,1737.207L1222.517,1737.207L1222.517,1772.103L1117.828,1772.103L1117.828,1667.414L1187.621,1667.414ZM664.172,1702.31L664.172,1737.207L699.069,1737.207L699.069,1772.103L664.172,1772.103L664.172,1807L803.759,1807L803.759,1772.103L733.966,1772.103L733.966,1702.31L664.172,1702.31ZM1327.207,1737.207L1327.207,1807L1397,1807L1397,1772.103L1362.103,1772.103L1362.103,1737.207L1327.207,1737.207ZM838.655,1772.103L838.655,1807L908.448,1807L908.448,1772.103L838.655,1772.103Z"/>
        </g>
    </g>
</svg>
